# xmcd CD database file
#
# Track frame offsets:
#	150
#	16572
#	31775
#	41210
#	59790
#	70802
#	83017
#	96490
#	108915
#	127095
#	140187
#	158670
#
# Disc length: 2417 seconds
#
# Revision: 0
# Processed by: cddbd v1.4PL0 Copyright (c) Steve Scherf et al.
# Submitted via: Feurio! 1.65 - http://www.feurio.com
#
DISCID=a3096f0c
DTITLE=Bacon Fat - 'tough Dude
DYEAR=1970
DGENRE=
TTITLE0=Wait On It
TTITLE1=Down The Road
TTITLE2=Betty
TTITLE3=Leaving On Your Mind
TTITLE4=Jivin' The Business
TTITLE5=Shake Dancer
TTITLE6=Travelling South
TTITLE7=Evil
TTITLE8=Blues Feeling
TTITLE9=Pool Hall Sam
TTITLE10=Transatlantic Blues
TTITLE11=Hurricane
EXTD=
EXTT0=
EXTT1=
EXTT2=
EXTT3=
EXTT4=
EXTT5=
EXTT6=
EXTT7=
EXTT8=
EXTT9=
EXTT10=
EXTT11=
PLAYORDER=
